<?xml version="1.0" encoding="UTF-8"?>
<svg id="Layer_1" xmlns="http://www.w3.org/2000/svg" viewBox="0 0 292.9 334.65">
  <path d="M146.45,0c-6.34,0-11.5,5.16-11.5,11.5s5.16,11.5,11.5,11.5,11.5-5.16,11.5-11.5-5.16-11.5-11.5-11.5Z"/>
  <path d="M191.44,25.97c-6.34,0-11.5,5.16-11.5,11.5s5.16,11.5,11.5,11.5,11.5-5.16,11.5-11.5-5.16-11.5-11.5-11.5Z"/>
  <path d="M98.49,48.58c.99.27,2,.4,3,.4,1.99,0,3.96-.52,5.73-1.55,2.66-1.54,4.56-4.01,5.36-6.98.8-2.97.39-6.07-1.15-8.73-3.17-5.49-10.22-7.38-15.71-4.21-5.49,3.17-7.38,10.22-4.21,15.71,1.54,2.66,4.02,4.56,6.98,5.36Z"/>
  <path d="M230.67,73.4c1.77,1.02,3.74,1.55,5.73,1.55,1,0,2-.13,3-.4,2.97-.79,5.45-2.7,6.98-5.36,3.17-5.49,1.28-12.54-4.21-15.71-5.49-3.17-12.54-1.28-15.71,4.21h0c-3.17,5.49-1.28,12.54,4.21,15.71Z"/>
  <path d="M140.7,73.4c1.77,1.02,3.74,1.55,5.73,1.55,1,0,2-.13,3-.4,2.97-.79,5.45-2.7,6.98-5.36,3.17-5.49,1.28-12.54-4.21-15.71-5.49-3.17-12.54-1.28-15.71,4.21-3.17,5.49-1.28,12.54,4.21,15.71Z"/>
  <path d="M50.74,73.4c1.77,1.02,3.74,1.55,5.73,1.55,1,0,2-.13,3-.4,2.97-.79,5.45-2.7,6.98-5.36,3.17-5.49,1.28-12.54-4.21-15.71-5.49-3.17-12.54-1.28-15.71,4.21-3.17,5.49-1.28,12.54,4.21,15.71Z"/>
  <path d="M281.42,100.91c1.95,0,3.92-.5,5.73-1.54,2.66-1.54,4.56-4.01,5.36-6.98.8-2.97.39-6.07-1.15-8.73-3.17-5.49-10.21-7.38-15.71-4.21-5.49,3.17-7.38,10.22-4.21,15.71,2.13,3.68,6,5.75,9.98,5.75Z"/>
  <path d="M185.69,99.37c1.81,1.04,3.78,1.54,5.73,1.54,3.98,0,7.85-2.06,9.98-5.75,1.54-2.66,1.94-5.76,1.15-8.73-.79-2.97-2.7-5.45-5.36-6.98-2.66-1.54-5.76-1.94-8.73-1.15-2.97.79-5.45,2.7-6.98,5.36-1.54,2.66-1.94,5.76-1.15,8.73.79,2.97,2.7,5.45,5.36,6.98Z"/>
  <path d="M101.49,100.91c1.95,0,3.92-.49,5.73-1.54,2.66-1.54,4.56-4.01,5.36-6.98.8-2.97.39-6.07-1.15-8.73-3.17-5.49-10.22-7.38-15.71-4.21-5.49,3.17-7.38,10.22-4.21,15.71,2.13,3.68,6,5.75,9.98,5.75Z"/>
  <path d="M5.75,99.37c1.81,1.04,3.78,1.54,5.73,1.54,3.98,0,7.85-2.06,9.98-5.75,3.17-5.49,1.28-12.54-4.21-15.71-2.66-1.54-5.76-1.94-8.73-1.15-2.97.79-5.45,2.7-6.98,5.36-1.54,2.66-1.94,5.76-1.15,8.73.79,2.97,2.7,5.45,5.36,6.98Z"/>
  <path d="M236.42,103.88c-6.34,0-11.5,5.16-11.5,11.5s5.16,11.5,11.5,11.5,11.5-5.16,11.5-11.5-5.16-11.5-11.5-11.5Z"/>
  <path d="M135.35,118.36c.8,2.97,2.7,5.45,5.36,6.98,1.77,1.02,3.74,1.55,5.73,1.55,1,0,2-.13,3-.4,2.97-.79,5.45-2.7,6.98-5.36,1.54-2.66,1.94-5.76,1.15-8.73-.79-2.97-2.7-5.45-5.36-6.98-5.49-3.17-12.54-1.28-15.71,4.21-1.54,2.66-1.94,5.76-1.15,8.73Z"/>
  <path d="M56.51,126.88c1.95,0,3.92-.5,5.73-1.54,5.49-3.17,7.38-10.22,4.21-15.71h0c-3.17-5.49-10.22-7.38-15.71-4.21-2.66,1.54-4.56,4.01-5.36,6.98-.8,2.97-.39,6.07,1.15,8.73,2.13,3.68,6,5.75,9.98,5.75Z"/>
  <path d="M275.65,131.4c-5.49,3.17-7.38,10.22-4.21,15.71,2.13,3.68,6,5.75,9.98,5.75,1.95,0,3.92-.5,5.73-1.54,2.66-1.54,4.56-4.02,5.36-6.98.79-2.97.39-6.07-1.15-8.73-3.17-5.49-10.22-7.38-15.71-4.21Z"/>
  <path d="M191.44,129.85c-6.34,0-11.5,5.16-11.5,11.5s5.16,11.5,11.5,11.5,11.5-5.16,11.5-11.5-5.16-11.5-11.5-11.5Z"/>
  <path d="M111.43,135.6c-3.17-5.49-10.22-7.38-15.71-4.21-5.49,3.17-7.38,10.22-4.21,15.71,1.54,2.66,4.02,4.56,6.98,5.36.99.27,2,.4,3,.4,1.99,0,3.96-.52,5.73-1.55,2.66-1.54,4.56-4.01,5.36-6.98.8-2.97.39-6.07-1.15-8.73h0Z"/>
  <path d="M11.5,129.85C5.16,129.85,0,135.01,0,141.35s5.16,11.5,11.5,11.5,11.5-5.16,11.5-11.5-5.16-11.5-11.5-11.5Z"/>
  <path d="M236.42,155.83c-6.34,0-11.5,5.16-11.5,11.5s5.16,11.5,11.5,11.5,11.5-5.16,11.5-11.5-5.16-11.5-11.5-11.5Z"/>
  <path d="M56.49,155.83c-6.34,0-11.5,5.16-11.5,11.5s5.16,11.5,11.5,11.5,11.5-5.16,11.5-11.5-5.16-11.5-11.5-11.5Z"/>
  <path d="M281.4,204.79c6.34,0,11.5-5.16,11.5-11.5s-5.16-11.5-11.5-11.5-11.5,5.16-11.5,11.5,5.16,11.5,11.5,11.5Z"/>
  <path d="M181.48,199.05c2.13,3.68,6,5.75,9.98,5.75,1.95,0,3.92-.49,5.73-1.54,2.66-1.54,4.56-4.01,5.36-6.98.8-2.97.39-6.07-1.15-8.73-3.17-5.49-10.21-7.38-15.71-4.21-5.49,3.17-7.38,10.22-4.21,15.71h0Z"/>
  <path d="M101.47,181.8c-6.34,0-11.5,5.16-11.5,11.5s5.16,11.5,11.5,11.5,11.5-5.16,11.5-11.5-5.16-11.5-11.5-11.5Z"/>
  <path d="M5.75,183.34c-5.49,3.17-7.38,10.22-4.21,15.71h0c2.13,3.68,6,5.75,9.98,5.75,1.95,0,3.92-.49,5.73-1.54,2.66-1.54,4.56-4.01,5.36-6.98.8-2.97.39-6.07-1.15-8.73-3.17-5.49-10.22-7.38-15.71-4.21Z"/>
  <path d="M236.44,230.76c1.95,0,3.92-.5,5.73-1.54,5.49-3.17,7.38-10.22,4.21-15.71-3.17-5.49-10.22-7.38-15.71-4.21-2.66,1.54-4.56,4.01-5.36,6.98-.8,2.97-.39,6.07,1.15,8.73,2.13,3.68,6,5.75,9.98,5.75Z"/>
  <path d="M157.56,216.29c-.79-2.97-2.7-5.45-5.36-6.98-5.49-3.17-12.53-1.28-15.71,4.21h0c-3.17,5.49-1.28,12.54,4.21,15.71,1.77,1.02,3.74,1.55,5.73,1.55,1,0,2-.13,3-.4,2.97-.79,5.45-2.7,6.98-5.36,1.54-2.66,1.94-5.76,1.15-8.73Z"/>
  <path d="M56.49,207.77c-6.34,0-11.5,5.16-11.5,11.5s5.16,11.5,11.5,11.5,11.5-5.16,11.5-11.5-5.16-11.5-11.5-11.5Z"/>
  <path d="M287.15,235.28c-2.66-1.54-5.76-1.94-8.73-1.15s-5.45,2.7-6.98,5.36c-3.17,5.49-1.28,12.54,4.21,15.71,1.81,1.04,3.78,1.54,5.73,1.54,3.98,0,7.85-2.06,9.98-5.75,1.54-2.66,1.94-5.76,1.15-8.73-.79-2.97-2.7-5.45-5.36-6.98Z"/>
  <path d="M194.41,234.13c-2.97-.79-6.07-.39-8.72,1.15-2.66,1.54-4.56,4.01-5.36,6.98-.8,2.97-.39,6.06,1.15,8.73,1.54,2.66,4.02,4.56,6.98,5.36.99.27,2,.4,3,.4,1.99,0,3.96-.52,5.73-1.55,2.66-1.54,4.56-4.02,5.36-6.98.8-2.97.39-6.07-1.15-8.73-1.54-2.66-4.02-4.56-6.98-5.36Z"/>
  <path d="M101.45,256.73c3.98,0,7.85-2.06,9.98-5.75,1.54-2.66,1.94-5.76,1.15-8.73-.79-2.97-2.7-5.44-5.36-6.98-2.66-1.54-5.76-1.95-8.73-1.15-2.97.79-5.45,2.7-6.98,5.36-3.17,5.49-1.28,12.54,4.21,15.71,1.81,1.04,3.78,1.54,5.73,1.54Z"/>
  <path d="M14.48,234.13c-2.97-.79-6.07-.39-8.73,1.15-5.49,3.17-7.38,10.22-4.21,15.71,1.54,2.66,4.02,4.56,6.98,5.36.99.27,2,.4,3,.4,1.99,0,3.96-.52,5.73-1.55,5.49-3.17,7.38-10.22,4.21-15.71-1.54-2.66-4.02-4.56-6.98-5.36Z"/>
  <path d="M242.17,261.25c-5.49-3.17-12.54-1.28-15.71,4.21-3.17,5.49-1.28,12.54,4.21,15.71,1.77,1.02,3.74,1.55,5.73,1.55,1,0,2-.13,3-.4,2.97-.79,5.45-2.7,6.98-5.36,3.17-5.49,1.28-12.54-4.21-15.71Z"/>
  <path d="M152.2,261.25c-5.49-3.17-12.54-1.28-15.71,4.21h0c-3.17,5.49-1.28,12.54,4.21,15.71,1.77,1.02,3.74,1.55,5.73,1.55,1,0,2-.13,3-.4,2.97-.79,5.45-2.7,6.98-5.36,3.17-5.49,1.28-12.54-4.21-15.71Z"/>
  <path d="M62.24,261.25c-5.49-3.17-12.54-1.28-15.71,4.21-3.17,5.49-1.28,12.54,4.21,15.71,1.77,1.02,3.74,1.55,5.73,1.55,1,0,2-.13,3-.4,2.97-.79,5.45-2.7,6.98-5.36,3.17-5.49,1.28-12.54-4.21-15.71Z"/>
  <path d="M185.69,287.22c-2.66,1.54-4.56,4.02-5.36,6.98-.8,2.97-.39,6.07,1.15,8.73,2.13,3.68,6,5.75,9.98,5.75,1.95,0,3.92-.49,5.73-1.54,2.66-1.54,4.56-4.01,5.36-6.98.8-2.97.39-6.07-1.15-8.73-3.17-5.49-10.21-7.38-15.71-4.21Z"/>
  <path d="M101.47,285.68c-6.34,0-11.5,5.16-11.5,11.5s5.16,11.5,11.5,11.5,11.5-5.16,11.5-11.5-5.16-11.5-11.5-11.5Z"/>
  <path d="M146.45,311.65c-6.34,0-11.5,5.16-11.5,11.5s5.16,11.5,11.5,11.5,11.5-5.16,11.5-11.5-5.16-11.5-11.5-11.5Z"/>
</svg>